# xmcd CD database file
#
# Track frame offsets:
#	150
#	19452
#	32537
#	51220
#	63150
#	79235
#	98897
#	111257
#	124285
#	145810
#	162000
#
# Disc length: 2401 seconds
#
# Revision: 2
# Processed by: cddbd v1.5.1PL0 Copyright (c) Steve Scherf et al.
# Submitted via: CDex 1.51
#
DISCID=91095f0b
DTITLE=Efva Attling - Sanningen ligger på min säng
DYEAR=1997
DGENRE=
TTITLE0=Mot din rygg
TTITLE1=Samma syre en sekund
TTITLE2=Sanningen ligger på min säng
TTITLE3=Du
TTITLE4=Ensam vals
TTITLE5=Som hav och jord
TTITLE6=Du finns i mitt blod
TTITLE7=Du lyser
TTITLE8=Adjö min vän
TTITLE9=Nära
TTITLE10=Jag tar ner din bild
EXTD=YEAR: 1997
EXTT0=
EXTT1=
EXTT2=
EXTT3=
EXTT4=
EXTT5=
EXTT6=
EXTT7=
EXTT8=
EXTT9=
EXTT10=
PLAYORDER=
